<?xml version="1.0" encoding="utf-8"?>
<!-- Generator: Adobe Illustrator 19.1.0, SVG Export Plug-In . SVG Version: 6.00 Build 0)  -->
<svg version="1.1" id="Ebene_1" xmlns="http://www.w3.org/2000/svg" xmlns:xlink="http://www.w3.org/1999/xlink" x="0px" y="0px"
	 viewBox="-0.2 -11.8 400 124.7" style="enable-background:new -0.2 -11.8 400 124.7;" xml:space="preserve">
<style type="text/css">
	.st0{fill:#1446A5;}
	.st1{fill:#787878;}
</style>
<g>
	<path class="st0" d="M138.2-11.4h2.3v11.2H156v-11.2h2.3v26H156V1.9h-15.4v12.7h-2.3V-11.4z"/>
	<path class="st0" d="M163.8-11.4h18v2.1h-15.4v9.5h14.6v2.1h-14.6v10.4h15.6v2.1h-18.2C163.8,14.4,163.8-11.4,163.8-11.4z"/>
	<path class="st0" d="M185.5-11.4h2.3v26h-2.3V-11.4z"/>
	<path class="st0" d="M193.4-11.4h2.7l15.2,22l0,0v-22h2.3v26h-2.7l-15-22l0,0v22h-2.3L193.4-11.4L193.4-11.4z"/>
	<path class="st0" d="M219.1-11.4H231c4.2,0,7.8,2.1,7.8,6.8c0,3.2-1.7,6.1-5.1,6.6l0,0c3.4,0.4,4.4,2.7,4.6,5.9
		c0.2,1.9,0.2,5.5,1.3,6.6h-2.7c-0.6-1.1-0.6-3-0.6-4C236,6.8,235.6,2.7,231,3h-9.5v11.4h-2.3C219.1,14.4,219.1-11.4,219.1-11.4z
		 M221.5,0.8h9.3c3,0,5.7-1.9,5.7-5.1s-1.9-5.3-5.7-5.3h-9.3V0.8z"/>
	<path class="st0" d="M243.4-11.4h2.3v26h-2.3V-11.4z"/>
	<path class="st0" d="M270.5-3.6c-0.8-4-4.2-6.3-8-6.3c-6.8,0-9.9,5.9-9.9,11.4c0,5.7,2.7,11.4,9.9,11.4c4.9,0,7.8-3.6,8.2-8.2h2.3
		c-0.6,6.6-4.6,10.6-11,10.6c-8.2,0-12.3-6.6-12.3-13.5c0-7,4-13.5,12.3-13.5c4.9,0,9.9,3,10.6,8.5h-2.1V-3.6z"/>
	<path class="st0" d="M276.8-11.4h2.3v11.2h15.4v-11.2h2.3v26h-2.1V1.9h-15.4v12.7H277L276.8-11.4L276.8-11.4z"/>
</g>
<g>
	<path class="st1" d="M138.2,19.9h11.4c4.6,0,7.6,2.7,7.6,7.4s-3,7.4-7.6,7.4h-9.1v11h-2.3C138.2,45.9,138.2,19.9,138.2,19.9z
		 M140.5,32.5h8.5c3.4,0,5.9-1.9,5.9-5.3c0-3.6-2.3-5.3-5.9-5.3h-8.5V32.5z"/>
	<path class="st1" d="M161.2,19.9h11.8c4.2,0,7.8,2.1,7.8,6.8c0,3.2-1.7,6.1-5.1,6.6l0,0c3.4,0.4,4.4,2.7,4.6,5.9
		c0.2,1.9,0.2,5.5,1.3,6.6H179c-0.6-1.1-0.6-3-0.6-4c-0.2-3.6-0.6-7.6-5.3-7.4h-9.5v11.4h-2.3C161.2,45.9,161.2,19.9,161.2,19.9z
		 M163.6,32.1h9.3c3,0,5.7-1.9,5.7-5.1s-1.9-5.3-5.7-5.3h-9.3V32.1z"/>
	<path class="st1" d="M196.3,19.2c8,0,12.3,6.6,12.3,13.5s-4,13.5-12.3,13.5c-8.2,0-12.3-6.6-12.3-13.5S188.1,19.2,196.3,19.2z
		 M196.3,44.4c6.8,0,9.7-5.9,9.7-11.4s-2.7-11.4-9.7-11.4s-9.9,5.9-9.9,11.4C186.6,38.7,189.3,44.4,196.3,44.4z"/>
	<path class="st1" d="M212.4,19.9h16.5V22h-13.9v9.5h12.5v2.1h-12.5v12.3h-2.3L212.4,19.9L212.4,19.9z"/>
	<path class="st1" d="M232,19.9h18V22h-15.4v9.5h14.6v2.1h-14.6v10.4h15.6v2.1H232C232,45.6,232,19.9,232,19.9z"/>
	<path class="st1" d="M254.4,37.4c-0.2,5.5,3.8,7,8.5,7c2.7,0,6.8-1.5,6.8-5.3c0-3-3-4-5.5-4.6l-5.9-1.5c-3-0.8-5.9-2.1-5.9-6.3
		c0-2.5,1.7-7.2,8.9-7.2c5.1,0,9.7,2.7,9.7,8h-2.3c-0.2-4-3.4-6.1-7-6.1c-3.4,0-6.6,1.3-6.6,5.3c0,2.3,1.9,3.4,3.8,4l6.3,1.7
		c3.6,1.1,6.6,2.5,6.6,6.8c0,1.9-0.8,7.4-9.9,7.4c-6.1,0-10.8-2.7-10.4-9.1h2.5l0,0L254.4,37.4L254.4,37.4z"/>
	<path class="st1" d="M277.5,37.4c-0.2,5.5,3.8,7,8.5,7c2.7,0,6.8-1.5,6.8-5.3c0-3-3-4-5.5-4.6l-5.9-1.5c-3-0.8-5.9-2.1-5.9-6.3
		c0-2.5,1.7-7.2,8.9-7.2c5.1,0,9.7,2.7,9.7,8h-2.1c-0.2-4-3.4-6.1-7-6.1c-3.4,0-6.6,1.3-6.6,5.3c0,2.3,1.9,3.4,3.8,4l6.3,1.7
		c3.6,1.1,6.6,2.5,6.6,6.8c0,1.9-0.8,7.4-9.9,7.4c-6.1,0-10.8-2.7-10.4-9.1L277.5,37.4L277.5,37.4z"/>
	<path class="st1" d="M299.4,19.9h2.3v26h-2.3V19.9z"/>
	<path class="st1" d="M318.2,19.2c8,0,12.3,6.6,12.3,13.5s-4,13.5-12.3,13.5c-8.2,0-12.3-6.6-12.3-13.5S310,19.2,318.2,19.2z
		 M318.2,44.4c6.8,0,9.7-5.9,9.7-11.4s-2.7-11.4-9.7-11.4c-6.8,0-9.9,5.9-9.9,11.4C308.3,38.7,311.5,44.4,318.2,44.4z"/>
	<path class="st1" d="M334.1,19.9h2.7l15.2,22l0,0v-22h2.3v26h-2.7l-15-22l0,0v22h-2.3v-26H334.1z"/>
	<path class="st1" d="M367.5,19.9h2.7l10.4,26H378l-3.2-8H363l-3.2,8h-2.5L367.5,19.9z M363.7,35.7H374l-5.1-13.3L363.7,35.7z"/>
	<path class="st1" d="M382.7,19.9h2.5v23.9h14.6v2.1h-16.9v-26H382.7z"/>
</g>
<g>
	<path class="st1" d="M157.2,59.2c-0.8-4-4.2-6.3-8-6.3c-6.8,0-9.9,5.9-9.9,11.4c0,5.7,2.7,11.4,9.9,11.4c4.9,0,7.8-3.6,8.2-8.2h2.3
		c-0.6,6.6-4.6,10.6-11,10.6c-8.2,0-12.3-6.6-12.3-13.5c0-7,4-13.5,12.3-13.5c4.9,0,9.9,3,10.6,8.5L157.2,59.2
		C157.2,59.4,157.2,59.2,157.2,59.2z"/>
	<path class="st1" d="M174.8,50.7c8,0,12.3,6.6,12.3,13.5s-4,13.5-12.3,13.5c-8.2,0-12.3-6.6-12.3-13.5
		C162.3,57.3,166.3,50.7,174.8,50.7z M174.8,75.6c6.8,0,9.7-5.9,9.7-11.4c0-5.5-2.7-11.4-9.7-11.4c-7,0-9.9,5.9-9.9,11.4
		C165,69.9,167.8,75.6,174.8,75.6z"/>
	<path class="st1" d="M190.8,51.3h2.7l15.2,22l0,0v-22h2.3v25.8h-2.7l-15.2-21.8l0,0v21.8h-2.3V51.3z"/>
	<path class="st1" d="M217.7,68.7c-0.2,5.5,3.8,7,8.5,7c2.7,0,6.8-1.5,6.8-5.3c0-3-3-4-5.5-4.6l-5.9-1.5c-3-0.8-5.9-2.1-5.9-6.3
		c0-2.5,1.7-7.2,8.9-7.2c5.1,0,9.7,2.7,9.7,8h-2.3c-0.2-4-3.4-6.1-7-6.1c-3.4,0-6.6,1.3-6.6,5.3c0,2.3,1.9,3.4,3.8,4l6.3,1.7
		c3.6,1.1,6.6,2.5,6.6,6.8c0,1.9-0.8,7.4-9.9,7.4c-6.1,0-10.8-2.7-10.4-9.1h2.5l0,0L217.7,68.7L217.7,68.7z"/>
	<path class="st1" d="M239,51.3h2.3v16.1c0,6.1,2.7,8.2,7.6,8.2s7.6-2.1,7.6-8.2V51.3h2.3v16.5c0,5.5-2.7,9.9-10.1,9.9
		c-7.2,0-10.1-4.6-10.1-9.9V51.3H239z"/>
	<path class="st1" d="M264.1,51.3h2.3v23.9H281v2.1h-16.9V51.3z"/>
	<path class="st1" d="M277.7,51.3h20.5v2.1h-8.9v23.9h-2.5V53.5h-9.1C277.7,53.5,277.7,51.3,277.7,51.3z"/>
	<path class="st1" d="M305.8,51.3h2.7l10.4,26h-2.5l-3.2-8h-12l-3.2,8h-2.7L305.8,51.3z M302,67h10.4l-5.1-13.3L302,67z"/>
	<path class="st1" d="M321,51.3h3l15.2,22l0,0v-22h2.3v25.8h-2.7l-15.2-22l0,0v22h-2.3V51.3L321,51.3L321,51.3z"/>
	<path class="st1" d="M343.8,51.3h20.5v2.1h-9.1v23.9h-2.3V53.5h-9.1C343.8,53.5,343.8,51.3,343.8,51.3z"/>
</g>
<g>
	<path class="st1" d="M138.2,82.6h2.7l15.2,22l0,0v-22h2.3v26h-2.7l-15-22l0,0v22h-2.3L138.2,82.6L138.2,82.6z"/>
	<path class="st1" d="M163.8,82.6h18v2.1h-15.4v9.5h14.6v2.1h-14.6v10.4h15.6v2.1h-18.2C163.8,108.4,163.8,82.6,163.8,82.6z"/>
	<path class="st1" d="M182.6,82.6h20.5v2.1H194v23.9h-2.3V84.9h-9.1C182.6,84.9,182.6,82.6,182.6,82.6z"/>
	<path class="st1" d="M202.9,82.6h2.5l5.9,22.8l0,0l6.3-22.8h3l6.6,22.8l0,0l5.9-22.8h2.3l-7.2,26h-2.5l-6.1-23.2l0,0l-6.6,23.2
		h-2.5L202.9,82.6z"/>
	<path class="st1" d="M249.6,82c8,0,12.3,6.6,12.3,13.5c0,7-4,13.5-12.3,13.5c-8.2,0-12.3-6.6-12.3-13.5
		C237.1,88.5,241.1,82,249.6,82z M249.6,106.9c6.8,0,9.7-5.9,9.7-11.4c0-5.7-2.7-11.4-9.7-11.4c-6.8,0-9.9,5.9-9.9,11.4
		C239.6,101.4,242.6,106.9,249.6,106.9z"/>
	<path class="st1" d="M265.6,82.6h11.8c4.2,0,7.8,2.1,7.8,6.8c0,3.2-1.7,6.1-5.1,6.6l0,0c3.4,0.4,4.4,2.7,4.6,5.9
		c0.2,1.9,0.2,5.5,1.3,6.6h-2.7c-0.6-1.1-0.6-3-0.6-4c-0.2-3.6-0.6-7.6-5.3-7.4h-9.5v11.4h-2.3V82.6z M267.9,94.9h9.3
		c3,0,5.7-1.9,5.7-5.1c0-3.2-1.9-5.3-5.7-5.3h-9.3V94.9z"/>
	<path class="st1" d="M289.7,82.6h2.5v13.9l15.2-13.9h3.4l-11.6,10.8l12,15.4h-3l-11-13.5l-5.1,4.4v8.9h-2.5V82.6L289.7,82.6z"/>
</g>
<g>
	<path class="st1" d="M337.7,108.6h-1.3l-0.2-3.6l0,0c-1.5,2.7-4,4-6.8,4c-6.3,0-9.5-5.1-9.5-10.6c0-5.5,3.2-10.6,9.5-10.6
		c4.2,0,7.6,2.1,8.2,6.6h-1.9c-0.2-2.1-2.5-5.1-6.6-5.1c-5.3,0-7.4,4.4-7.4,8.9c0,4.4,2.1,8.9,7.4,8.9c4.4,0,7-3,6.8-7.2h-6.8v-1.7
		h8.5V108.6L337.7,108.6z"/>
	<path class="st1" d="M341.3,88.7h2.7l6.8,17.5l6.8-17.5h2.7v19.9h-1.9V91.3l0,0l-6.8,17.3h-1.9L343,91.3l0,0v17.3h-1.9L341.3,88.7
		L341.3,88.7z"/>
	<path class="st1" d="M364.7,88.7h8.5c3.4,0,6.6,1.3,6.6,4.9c0,2.1-1.5,4-3.4,4.4l0,0c2.5,0.4,4.2,2.1,4.2,4.9
		c0,1.9-0.6,5.7-7.2,5.7h-8.5L364.7,88.7L364.7,88.7z M366.6,97.4h6.6c3,0,4.4-1.7,4.4-3.4c0-2.3-1.7-3.8-4.4-3.8h-6.6V97.4z
		 M366.6,106.9h6.6c2.7,0,5.3-1.1,5.3-4c0-2.5-2.1-3.8-5.3-3.8h-6.6V106.9z"/>
	<path class="st1" d="M383.3,88.7h1.9v8.7h11.8v-8.7h1.9v19.9h-1.9v-9.7h-11.8v9.7h-1.9V88.7z"/>
</g>
<g>
	<path class="st0" d="M61.3,47.8h-11V25.1h-37v22.6h-11V-11h11v26.2h37V-11h11V47.8z"/>
</g>
<g>
	<path class="st1" d="M127.4,111.1h-10.6L79.3,68.7v42.5H68.5V52.8H79l37.4,42.5V52.8h11V111.1z"/>
</g>
<g>
	<path class="st1" d="M32.8,112.8c-22.8,0-33-15.4-33-30.6s10.1-30.6,33-30.6c12.3,0,26.6,6.1,28.5,19.4l0.4,2.3H50.3l-0.4-1.5
		C47.6,63,39.3,61.3,32.8,61.3c-19.7,0-22,14.6-22,20.9s2.1,20.9,21.8,20.9c10.4,0,16.9-5.3,18-14.6l0.2-1.9h11.6L62.1,89
		C60.2,103.5,49,112.8,32.8,112.8z"/>
</g>
<g>
	<path class="st1" d="M79.7,47.8H68.5v-59h34.7c14.6,0,24.1,7.2,24.1,18c0,11-9.5,18.2-24.1,18.2H79.5L79.7,47.8L79.7,47.8z
		 M79.7,15.2h22c6.6,0,14.4-1.5,14.4-8.7c0-7.6-9.1-8.7-14.4-8.7h-22V15.2z"/>
</g>
</svg>
